<svg width="132" height="127" viewBox="0 0 132 127" fill="none" xmlns="http://www.w3.org/2000/svg">
<path d="M125.67 61.1242C125.678 69.5207 123.865 77.826 120.349 85.508C116.833 93.19 111.69 100.079 105.25 105.734C103.459 107.308 101.576 108.783 99.6102 110.15C97.0872 111.905 94.4312 113.474 91.6646 114.846H91.6356C91.046 115.144 90.4467 115.428 89.8425 115.703C89.5671 115.833 89.2964 115.955 89.0161 116.076C87.2665 116.849 85.4718 117.543 83.632 118.158C82.1821 118.624 80.6935 119.09 79.1904 119.472C70.5202 121.695 61.4572 122.106 52.6085 120.678C51.5597 120.511 50.5255 120.32 49.496 120.101L48.6261 119.91C46 119.318 43.4168 118.562 40.8931 117.646C39.4271 117.115 37.9901 116.532 36.582 115.899C36.0359 115.652 35.4897 115.4 34.9533 115.139C34.586 114.962 34.2235 114.781 33.861 114.599C24.0271 109.621 15.7424 102.213 9.85535 93.1345C3.9683 84.0557 0.690398 73.6318 0.357295 62.9303C0.0241915 52.2289 2.64786 41.6343 7.95964 32.2316C13.2714 22.8289 21.0804 14.9558 30.5871 9.41863C40.0937 3.88145 50.9563 0.879105 62.0626 0.719034C73.1689 0.558963 84.1199 3.24692 93.794 8.50766C103.468 13.7684 111.518 21.4129 117.119 30.6583C122.72 39.9038 125.671 50.418 125.67 61.1242Z" fill="url(#paint0_linear)"/>
<path d="M79.4224 65.4939C83.4145 69.4536 95.0429 84.8639 95.0429 84.8639L87.8996 94.9588L81.4764 74.904L79.4224 65.4939Z" fill="url(#paint1_linear)"/>
<path d="M91.6359 114.878C91.0462 115.177 90.4469 115.461 89.8428 115.736C89.5673 115.866 89.2967 115.987 89.0163 116.108C87.2668 116.882 85.4721 117.576 83.6323 118.191C82.1824 118.656 80.6938 119.122 79.1907 119.504C70.5204 121.727 61.4574 122.139 52.6088 120.711C51.56 120.543 50.5257 120.352 49.4963 120.133C45.7265 122.639 42.2466 124.759 39.9413 125.723L40.1298 124.172L40.9127 117.683L42.7251 102.585L49.9071 95.8904L33.7598 97.0969C33.7598 97.0969 35.4562 74.4101 42.0775 69.7423C48.6988 65.0745 55.6439 60.8912 55.6439 60.8912C56.4725 61.4179 57.3852 61.8097 58.3456 62.0512V62.0512C60.6422 62.6631 63.0293 62.8977 65.4067 62.7453C68.2389 62.6195 71.0711 60.0806 71.2064 59.9502C71.2064 59.9502 75.6529 60.8027 79.4227 65.5124C81.3028 67.9369 82.6528 70.704 83.3906 73.6461C84.3186 77.0888 85.9667 85.1293 87.8419 94.8422C89.0695 101.094 90.3599 108.026 91.6359 114.878Z" fill="url(#paint2_linear)"/>
<path d="M95.0428 84.8824L101.935 92.6668L126.173 69.4769L127.091 64.7299L131.924 60.6816L129.773 66.8541V74.8947C129.773 74.8947 111.079 104.103 105.927 105.608C99.9001 107.374 87.9092 94.9494 87.9092 94.9494L95.0428 84.8824Z" fill="url(#paint3_linear)"/>
<path d="M69.8818 95.5271L75.5027 108.571L82.7668 105.562L77.4408 92.7972L69.8818 95.5271Z" fill="#7E57C2"/>
<path d="M77.7116 103.954C76.8078 104.672 75.4594 104.504 73.7872 104.588C71.5405 104.645 69.3857 105.459 67.6975 106.889C65.4501 108.711 59.1671 113.476 52.8841 117.827C51.7435 118.614 50.6029 119.392 49.5009 120.156C45.7311 122.663 42.2513 124.782 39.946 125.747C39.3399 126.037 38.6854 126.221 38.0127 126.292C34.7842 126.371 34.0931 119.849 33.8949 114.645C33.8321 112.917 33.8176 111.338 33.7838 110.197C33.6485 105.631 33.7838 97.1529 33.7838 97.1529L49.9311 95.9417L48.2202 106.721L47.9205 108.627V108.641L52.7536 106.917L52.9034 106.866L70.0609 100.721L71.245 98.7507L71.9989 100.614H72.0714L79.4177 99.6824C79.4177 99.6824 79.5434 102.505 77.7116 103.954Z" fill="url(#paint4_linear)"/>
<path d="M74.0043 35.9684C73.5839 34.8597 73.2214 34.105 73.115 33.8814V33.8255C73.115 33.8255 72.7429 34.7107 69.9397 34.4964C67.1365 34.2821 66.2086 32.9404 66.2086 32.9404C66.2086 32.9404 67.0882 35.8473 63.7485 37.0911C60.5345 38.293 59.2683 37.5151 59.1813 37.4592C59.3504 37.6362 61.8636 40.2263 60.1962 42.2807C58.4708 44.4096 54.5898 43.9903 54.5898 43.9903V44.0183C55.0783 45.0844 55.6252 46.1247 56.2283 47.1348C56.5472 47.6659 56.8614 48.155 57.1949 48.6116V48.6442C58.0508 49.9863 59.2066 51.1274 60.578 51.9843C59.9752 55.3934 58.2442 58.5229 55.6435 60.9053V60.9053C56.5183 61.3453 57.4206 61.7327 58.3452 62.0653C60.1479 62.7221 62.5693 63.3743 64.7297 63.1926C67.2329 62.9346 69.546 61.785 71.2157 59.9689L70.1089 55.8741L69.1133 52.1846C78.1125 49.9718 75.6379 40.3474 74.0043 35.9684ZM68.6106 52.3197L68.7701 52.2824L69.0263 52.2126C68.6535 52.368 68.2597 52.4715 67.8567 52.52C68.0645 52.4688 68.2771 52.4129 68.4994 52.3476L68.6106 52.3197Z" fill="url(#paint5_linear)"/>
<path d="M79.4223 33.7044C75.7105 36.9933 74.1059 36.0662 74.0044 35.9777V35.9684C73.584 34.8597 73.2215 34.105 73.12 33.8814L73.0958 33.8255C73.0958 33.8255 72.7188 34.7106 69.9157 34.4963C67.1125 34.282 66.1893 32.9404 66.1893 32.9404C66.1893 32.9404 67.069 35.8473 63.7293 37.0911C60.5105 38.293 59.2442 37.515 59.1621 37.4591C59.3312 37.6315 61.8444 40.2216 60.177 42.276C58.4516 44.4049 54.5706 43.9903 54.5706 43.9903V44.0136C55.0589 45.0813 55.6058 46.1232 56.209 47.1348C56.5312 47.6627 56.8535 48.155 57.1757 48.6115V48.6441C57.1757 48.6441 55.8514 51.1551 53.488 51.1038C51.1246 51.0526 51.0715 48.7746 51.0715 48.7746C51.0715 48.7746 49.3992 51.6815 44.2327 48.8817C39.0661 46.082 42.5121 42.0244 42.5121 42.0244C42.5121 42.0244 38.8486 39.3225 38.8486 35.2743C38.8486 31.2261 44.5517 28.1468 44.5517 28.1468C44.5517 28.1468 42.5121 23.4464 45.9533 20.8563C49.3944 18.2662 54.5658 20.0224 54.5658 20.0224C54.5658 20.0224 54.4643 14.0083 59.7324 14.1062C65.0004 14.204 66.1942 17.3112 66.1942 17.3112C66.1942 17.3112 70.9306 13.7801 75.6187 17.1062C80.3068 20.4324 78.3784 26.2322 78.3784 26.2322C78.3784 26.2322 83.2936 30.2804 79.4223 33.7044Z" fill="url(#paint6_linear)"/>
<path opacity="0.15" d="M70.1477 55.8601C67.9003 55.1753 63.9033 52.5619 63.9033 52.5619C65.4807 52.7225 67.0745 52.6408 68.6252 52.3196L68.7847 52.2824L69.0941 52.1938H69.1375L70.1477 55.8601Z" fill="black"/>
<path opacity="0.15" d="M52.0865 81.9569L49.9067 95.9323L48.1958 106.712L44.2134 109.903L52.8791 106.87C52.8791 106.87 50.6317 100.684 52.0865 81.9569Z" fill="black"/>
<path opacity="0.15" d="M49.4863 120.133C50.5158 120.352 51.5501 120.543 52.5988 120.711C52.652 119.756 52.7487 118.791 52.884 117.827L49.4863 120.133Z" fill="black"/>
<defs>
<linearGradient id="paint0_linear" x1="63.2568" y1="7.2717" x2="61.2654" y2="126.33" gradientUnits="userSpaceOnUse">
<stop stop-color="white" stop-opacity="0"/>
<stop offset="1" stop-color="#64B5F6" stop-opacity="0.6"/>
</linearGradient>
<linearGradient id="paint1_linear" x1="74.6908" y1="61.4923" x2="91.0267" y2="91.2737" gradientUnits="userSpaceOnUse">
<stop stop-color="#E57373"/>
<stop offset="1" stop-color="#AD1457"/>
</linearGradient>
<linearGradient id="paint2_linear" x1="26460" y1="36322.6" x2="24759.5" y2="45029.9" gradientUnits="userSpaceOnUse">
<stop stop-color="#E57373"/>
<stop offset="1" stop-color="#AD1457"/>
</linearGradient>
<linearGradient id="paint3_linear" x1="138.483" y1="72.258" x2="92.5365" y2="99.8729" gradientUnits="userSpaceOnUse">
<stop stop-color="#FFF8E1"/>
<stop offset="1" stop-color="#FFCC80"/>
</linearGradient>
<linearGradient id="paint4_linear" x1="20346.9" y1="20344.7" x2="17878.8" y2="18618.1" gradientUnits="userSpaceOnUse">
<stop stop-color="#FFF8E1"/>
<stop offset="1" stop-color="#FFCC80"/>
</linearGradient>
<linearGradient id="paint5_linear" x1="78.7359" y1="40.7124" x2="53.488" y2="51.4997" gradientUnits="userSpaceOnUse">
<stop stop-color="#FFF8E1"/>
<stop offset="1" stop-color="#FFCC80"/>
</linearGradient>
<linearGradient id="paint6_linear" x1="72.8783" y1="13.9291" x2="44.4051" y2="53.8436" gradientUnits="userSpaceOnUse">
<stop stop-color="#FFB74D"/>
<stop offset="1" stop-color="#F4511E"/>
</linearGradient>
</defs>
</svg>
