<svg width="183" height="122" viewBox="0 0 183 122" fill="none" xmlns="http://www.w3.org/2000/svg">
<path d="M182.848 61.2577C182.842 72.3503 179.707 83.2273 173.786 92.6966C167.866 102.166 159.389 109.862 149.284 114.942C148.692 115.244 148.091 115.533 147.485 115.812C147.213 115.943 146.946 116.064 146.67 116.185C144.943 116.958 143.171 117.651 141.355 118.266C139.924 118.754 138.455 119.197 136.971 119.578C122.959 123.22 108.083 121.957 94.9257 116.008C94.3866 115.761 93.8476 115.51 93.3181 115.249C83.4674 110.44 75.111 103.152 69.1123 94.1377C63.1137 85.123 59.6904 74.7088 59.1961 63.9711C58.7018 53.2333 61.1545 42.5615 66.3007 33.0583C71.4469 23.5551 79.0999 15.5651 88.4691 9.91398C97.8383 4.26286 108.584 1.15554 119.595 0.913069C130.607 0.670602 141.485 3.30179 151.106 8.53476C160.727 13.7677 168.741 21.4127 174.322 30.6797C179.902 39.9468 182.845 50.4998 182.848 61.2483V61.2577Z" fill="url(#paint0_linear)"/>
<path d="M96.7432 98.5182L89.9121 88.1044C89.9121 88.1044 108.836 66.7555 110.73 65.494C110.73 65.494 101.184 81.1216 96.7432 98.5182Z" fill="url(#paint1_linear)"/>
<path d="M89.9124 88.1044L77.0325 99.277L53.3382 88.1044L35.2109 89.0727C35.2109 89.0727 46.5023 92.7969 49.6794 92.6433L52.8612 92.4897C52.8612 92.4897 72.3194 110.799 76.794 112.195C81.2686 113.592 95.966 102.643 95.966 102.643L96.8198 98.5508L89.9124 88.1044Z" fill="url(#paint2_linear)"/>
<path d="M125.451 62.9661C123.661 63.8118 121.737 64.3534 119.76 64.5675C117.475 64.9027 114.002 63.6644 114.002 63.6644C116.626 61.6487 116.016 56.8957 116.016 56.8957L116.073 56.8678C118.873 56.6583 121.215 55.1081 122.851 53.6091C122.26 57.6778 125.451 62.9661 125.451 62.9661Z" fill="url(#paint3_linear)"/>
<path d="M125.451 47.8273V50.6205C124.706 51.7056 123.835 52.7037 122.856 53.5952V53.5952C121.22 55.0988 118.878 56.649 116.078 56.8538C114.806 56.9487 113.528 56.7658 112.338 56.3185C104.705 53.5254 110.072 38.745 110.072 38.745C112.495 32.7304 123.467 35.6399 123.467 35.6399C124.936 37.3484 125.218 42.12 125.16 42.5856C124.916 43.2396 124.596 43.8643 124.206 44.4476C124.206 44.4476 126.291 42.5297 127.006 43.8052C127.722 45.0808 125.451 47.8273 125.451 47.8273Z" fill="url(#paint4_linear)"/>
<path d="M125.451 50.6298V47.8366C125.451 47.8366 127.717 45.1133 127.002 43.8285C126.286 42.5436 124.202 44.4709 124.202 44.4709C124.591 43.8876 124.911 43.2628 125.156 42.6088C125.213 42.1433 124.974 37.6417 123.462 35.6632C123.462 35.6632 112.49 32.7537 110.067 38.7682C110.067 38.7682 106.928 37.9908 104.223 34.3458C99.8012 28.3824 105.082 27.6516 110.315 28.8014C116.664 30.198 123.028 25.6172 130.303 30.2725C137.578 34.9277 131.056 45.509 125.451 50.6298Z" fill="#262F72"/>
<g filter="url(#filter0_d)">
<path d="M75.5153 24.6396H13.6202C12.1238 24.6396 10.9106 25.8235 10.9106 27.2838V82.979C10.9106 84.4394 12.1238 85.6232 13.6202 85.6232H75.5153C77.0118 85.6232 78.2249 84.4394 78.2249 82.979V27.2838C78.2249 25.8235 77.0118 24.6396 75.5153 24.6396Z" fill="white"/>
</g>
<path d="M21.2193 35.6911C21.0475 35.8809 20.8268 36.0223 20.5801 36.1008C20.2857 36.2005 19.9758 36.2493 19.6642 36.2451C19.3408 36.2523 19.0214 36.1752 18.7387 36.0216C18.471 35.8699 18.2565 35.6427 18.1234 35.3699C17.9718 35.0556 17.8951 34.7118 17.8992 34.3644V34.0944C17.8905 33.741 17.9605 33.39 18.1043 33.0656C18.2279 32.7904 18.4342 32.5583 18.6958 32.3999C19.0124 32.2326 19.3703 32.154 19.7298 32.1729C20.0893 32.1918 20.4364 32.3074 20.7327 32.5069C21.0173 32.7609 21.1885 33.1135 21.2098 33.4892H20.3941C20.3756 33.2994 20.2875 33.1225 20.146 32.9911C19.996 32.8789 19.8099 32.8228 19.6212 32.8328C19.4941 32.8259 19.3672 32.8509 19.2528 32.9055C19.1384 32.9601 19.0402 33.0425 18.9677 33.1447C18.8003 33.4266 18.7223 33.7506 18.7435 34.0757V34.3271C18.7228 34.6547 18.8079 34.9803 18.9868 35.2582C19.0693 35.3644 19.1773 35.4492 19.3012 35.5052C19.4251 35.5612 19.5612 35.5867 19.6976 35.5794C19.9391 35.6 20.1796 35.5301 20.3702 35.3839V34.6995H19.6069V34.099H21.2098L21.2193 35.6911Z" fill="#64B5F6"/>
<path d="M70.2678 32.1671H26.4093C25.8745 32.1671 25.4409 32.5902 25.4409 33.1121V36.5477C25.4409 37.0696 25.8745 37.4927 26.4093 37.4927H70.2678C70.8026 37.4927 71.2362 37.0696 71.2362 36.5477V33.1121C71.2362 32.5902 70.8026 32.1671 70.2678 32.1671Z" fill="#E7EEF2"/>
<path d="M71.2362 40.5H25.4409V41.431H71.2362V40.5Z" fill="#BBDEFB"/>
<path d="M71.2362 42.5948H25.4409V43.5259H71.2362V42.5948Z" fill="#E7E8E9"/>
<path d="M71.2362 44.6897H25.4409V45.6208H71.2362V44.6897Z" fill="#E7E8E9"/>
<path d="M71.2362 46.7845H25.4409V47.7156H71.2362V46.7845Z" fill="#E7E8E9"/>
<path d="M71.2362 50.7043H25.4409V51.6353H71.2362V50.7043Z" fill="#BBDEFB"/>
<path d="M71.2362 52.7991H25.4409V53.7302H71.2362V52.7991Z" fill="#E7E8E9"/>
<path d="M71.2362 54.894H25.4409V55.825H71.2362V54.894Z" fill="#E7E8E9"/>
<path d="M71.2362 56.9888H25.4409V57.9199H71.2362V56.9888Z" fill="#E7E8E9"/>
<path d="M71.2362 60.7922H25.4409V61.7232H71.2362V60.7922Z" fill="#BBDEFB"/>
<path d="M71.2362 62.887H25.4409V63.8181H71.2362V62.887Z" fill="#E7E8E9"/>
<path d="M71.2362 64.9819H25.4409V65.9129H71.2362V64.9819Z" fill="#E7E8E9"/>
<path d="M71.2362 67.0767H25.4409V68.0078H71.2362V67.0767Z" fill="#E7E8E9"/>
<path d="M71.2362 70.8801H25.4409V71.8111H71.2362V70.8801Z" fill="#BBDEFB"/>
<path d="M71.2362 72.9749H25.4409V73.9059H71.2362V72.9749Z" fill="#E7E8E9"/>
<path d="M71.2362 75.0698H25.4409V76.0008H71.2362V75.0698Z" fill="#E7E8E9"/>
<path d="M71.2362 77.1646H25.4409V78.0957H71.2362V77.1646Z" fill="#E7E8E9"/>
<path d="M141.952 85.4556C145.215 94.9336 147.633 105.906 149.284 114.942C148.692 115.244 148.091 115.533 147.486 115.812C147.214 115.943 146.947 116.064 146.67 116.185C144.943 116.958 143.172 117.651 141.356 118.266C139.925 118.754 138.455 119.197 136.972 119.578C122.96 123.22 108.083 121.957 94.926 116.008C94.3869 115.761 93.8479 115.51 93.3184 115.249C94.2724 110.468 95.4078 104.849 96.7387 98.5228C97.2221 96.2293 97.7293 93.8427 98.2604 91.363C100.994 78.6589 104.915 71.7412 108.154 67.9938L108.188 67.9565C108.803 67.2441 109.469 66.5752 110.182 65.9548C110.201 65.9323 110.224 65.912 110.248 65.8943C110.41 65.7546 110.573 65.6243 110.725 65.4986C112.676 63.9484 114.003 63.6644 114.003 63.6644L114.122 63.7063H114.189C115.225 64.1051 116.311 64.3665 117.418 64.4837H117.604H117.633C118.34 64.5498 119.051 64.5607 119.76 64.5163H119.803C121.772 64.3939 123.69 63.8537 125.423 62.9335V62.9335C127.455 63.5894 129.369 64.5523 131.095 65.7872C136.027 69.3205 145.964 82.276 145.964 82.276L141.952 85.4556Z" fill="url(#paint5_linear)"/>
<path d="M160.122 103.145C160.094 104.44 158.887 107.065 157.122 110.249C154.631 112.003 152.01 113.571 149.279 114.942C148.688 115.244 148.087 115.533 147.481 115.812C147.209 115.943 146.942 116.064 146.665 116.185C144.938 116.958 143.167 117.651 141.351 118.266L145.959 103.932L134.033 91.7122L141.947 85.4556L145.959 82.2854C145.959 82.2854 160.246 98.1411 160.122 103.145Z" fill="url(#paint6_linear)"/>
<defs>
<filter id="filter0_d" x="0.910645" y="18.6396" width="87.3143" height="80.9835" filterUnits="userSpaceOnUse" color-interpolation-filters="sRGB">
<feFlood flood-opacity="0" result="BackgroundImageFix"/>
<feColorMatrix in="SourceAlpha" type="matrix" values="0 0 0 0 0 0 0 0 0 0 0 0 0 0 0 0 0 0 127 0"/>
<feOffset dy="4"/>
<feGaussianBlur stdDeviation="5"/>
<feColorMatrix type="matrix" values="0 0 0 0 0 0 0 0 0 0 0 0 0 0 0 0 0 0 0.15 0"/>
<feBlend mode="normal" in2="BackgroundImageFix" result="effect1_dropShadow"/>
<feBlend mode="normal" in="SourceGraphic" in2="effect1_dropShadow" result="shape"/>
</filter>
<linearGradient id="paint0_linear" x1="121.245" y1="7.45283" x2="119.23" y2="126.433" gradientUnits="userSpaceOnUse">
<stop stop-color="white" stop-opacity="0"/>
<stop offset="1" stop-color="#64B5F6" stop-opacity="0.6"/>
</linearGradient>
<linearGradient id="paint1_linear" x1="101.824" y1="63.2781" x2="98.4146" y2="95.5334" gradientUnits="userSpaceOnUse">
<stop stop-color="#42A5F5"/>
<stop offset="1" stop-color="#1565C0"/>
</linearGradient>
<linearGradient id="paint2_linear" x1="60.5414" y1="97.2194" x2="100.101" y2="102.592" gradientUnits="userSpaceOnUse">
<stop stop-color="#FFE082"/>
<stop offset="1" stop-color="#FFA726"/>
</linearGradient>
<linearGradient id="paint3_linear" x1="8898.78" y1="2327.97" x2="8901.43" y2="2118.66" gradientUnits="userSpaceOnUse">
<stop stop-color="#FFE082"/>
<stop offset="1" stop-color="#FFA726"/>
</linearGradient>
<linearGradient id="paint4_linear" x1="14160.6" y1="3728.4" x2="14909.9" y2="3728.4" gradientUnits="userSpaceOnUse">
<stop stop-color="#FFE082"/>
<stop offset="1" stop-color="#FFA726"/>
</linearGradient>
<linearGradient id="paint5_linear" x1="40576.6" y1="13813.8" x2="45975.7" y2="19174.5" gradientUnits="userSpaceOnUse">
<stop stop-color="#42A5F5"/>
<stop offset="1" stop-color="#1565C0"/>
</linearGradient>
<linearGradient id="paint6_linear" x1="21739.8" y1="11218.5" x2="21382.1" y2="8911.55" gradientUnits="userSpaceOnUse">
<stop stop-color="#FFE082"/>
<stop offset="1" stop-color="#FFA726"/>
</linearGradient>
</defs>
</svg>
