<svg width="34" height="38" viewBox="0 0 34 38" fill="none" xmlns="http://www.w3.org/2000/svg">
<g clip-path="url(#clip0)">
<path d="M33.1037 11.875C33.5966 11.875 33.9999 11.4742 33.9999 10.9844V8.01562C33.9999 7.52578 33.5966 7.125 33.1037 7.125H31.6102V3.5625C31.6102 1.5957 30.0045 0 28.0255 0H4.12808C2.14907 0 0.543457 1.5957 0.543457 3.5625V34.4375C0.543457 36.4043 2.14907 38 4.12808 38H28.0255C30.0045 38 31.6102 36.4043 31.6102 34.4375V30.875H33.1037C33.5966 30.875 33.9999 30.4742 33.9999 29.9844V27.0156C33.9999 26.5258 33.5966 26.125 33.1037 26.125H31.6102V21.375H33.1037C33.5966 21.375 33.9999 20.9742 33.9999 20.4844V17.5156C33.9999 17.0258 33.5966 16.625 33.1037 16.625H31.6102V11.875H33.1037ZM16.0768 9.5C18.713 9.5 20.8563 11.6301 20.8563 14.25C20.8563 16.8699 18.713 19 16.0768 19C13.4406 19 11.2973 16.8699 11.2973 14.25C11.2973 11.6301 13.4406 9.5 16.0768 9.5ZM24.4409 27.075C24.4409 27.8617 23.6941 28.5 22.7681 28.5H9.38552C8.45949 28.5 7.71269 27.8617 7.71269 27.075V25.65C7.71269 23.2898 9.96055 21.375 12.7312 21.375H13.1046C14.0231 21.7535 15.0238 21.9688 16.0768 21.9688C17.1298 21.9688 18.138 21.7535 19.0491 21.375H19.4224C22.1931 21.375 24.4409 23.2898 24.4409 25.65V27.075Z" fill="#316099"/>
</g>
<defs>
<clipPath id="clip0">
<rect width="33.4564" height="38" fill="white" transform="translate(0.543457)"/>
</clipPath>
</defs>
</svg>
